<?xml version="1.0" encoding="utf-8"?>
<!-- Generator: Adobe Illustrator 20.1.0, SVG Export Plug-In . SVG Version: 6.00 Build 0)  -->
<svg version="1.1" id="Layer_1" xmlns="http://www.w3.org/2000/svg" xmlns:xlink="http://www.w3.org/1999/xlink" x="0px" y="0px"
	 viewBox="0 0 2351.9 621.4" style="enable-background:new 0 0 2351.9 621.4;" xml:space="preserve">
<style type="text/css">
	.st0{fill:#FFFFFF;}
</style>
<g>
	<g>
		<path class="st0" d="M1094.1,10v425.7c0,89.8-50.7,184.6-203.7,184.6c-138,0-204.6-71.5-204.6-184.6V10h125.6v417.4
			c0,74,31.6,103.1,77.3,103.1c54.9,0,79.8-36.6,79.8-103.1V10H1094.1z"/>
		<path class="st0" d="M1298.3,620.3c-155.5,0-184.6-91.5-177.9-195.4h125.6c0,57.4,2.5,105.6,71.5,105.6
			c42.4,0,63.2-27.4,63.2-68.2c0-108.1-252.8-114.7-252.8-293.5c0-94,44.9-168.8,197.9-168.8c122.2,0,182.9,54.9,174.6,180.4h-122.2
			c0-44.9-7.5-90.6-58.2-90.6c-40.7,0-64.8,22.5-64.8,64c0,113.9,252.8,103.9,252.8,292.7C1507.8,602,1393.9,620.3,1298.3,620.3z"/>
		<path class="st0" d="M2142.3,620.3c-155.5,0-184.6-91.5-177.9-195.4H2090c0,57.4,2.5,105.6,71.5,105.6c42.4,0,63.2-27.4,63.2-68.2
			c0-108.1-252.8-114.7-252.8-293.5c0-94,44.9-168.8,197.9-168.8c122.2,0,182.9,54.9,174.6,180.4h-122.2c0-44.9-7.5-90.6-58.2-90.6
			c-40.7,0-64.9,22.5-64.9,64c0,113.9,252.8,103.9,252.8,292.7C2351.9,602,2238,620.3,2142.3,620.3z"/>
		<path class="st0" d="M1742.4,386.6h73.9v132.5l-6.2,2.3c-19.1,6.7-41.6,11.6-62.4,11.6c-71.5,0-89.8-33.3-89.8-221.2
			c0-116.4,0-222,78.2-222c60.8,0,73.6,41,74.8,90.6h125.1C1937,63.9,1861.9,0,1743.6,0c-205.4,0-212.9,153.8-212.9,305.2
			c0,227.8,24.7,316.2,235.9,316.2c49,0,127-11.1,163-20.9c2.2-0.6,6.1-3,6.1-6.1c0-16.4,0-298.4,0-298.4h-193.3L1742.4,386.6
			L1742.4,386.6z"/>
	</g>
	<path class="st0" d="M161.8,211l2.1,2c58.8,49.3,122.3,44.5,170.7,12.3c30.5-20.3,168.4-112,246.3-163.8V9.8H0v136.7
		C35.4,140.4,92.5,146.4,161.8,211z"/>
	<path class="st0" d="M380.3,438.5l-68.6-65.8c-9.6-8.8-17.9-15.2-19.7-16.6c-56.1-39.4-108.4-27.4-130.9-19
		c-6.8,2.7-13.3,6.5-18,9.4L0,442.2v173.5h580.9V490.8C568.1,498.9,489.4,541.5,380.3,438.5z"/>
	<path class="st0" d="M156.7,226.5c-3.1-2.9-6.5-6-9.6-8.5C78.5,165,13.7,191,0,197.4v59.7l33.6-22.6c0,0,51.8-38.4,132.4,1
		L156.7,226.5z"/>
	<path class="st0" d="M236.9,303.7c-3-2.7-6.1-5.4-9.1-8.3C166.9,243.9,108.1,257,83.7,266c-6.9,2.8-13.5,6.5-18.2,9.4l-6.6,4.4h0
		L0,319.3v61.5L109.6,307c0,0,51.2-38,131,0.3L236.9,303.7z"/>
	<path class="st0" d="M581,368.1c-22.8,15.4-46.1,31.1-55.3,37.2c-20.7,13.8-68.5,48.1-148.1,10.1l9.4,9c3.5,3.2,7.8,6.8,12.4,10.4
		c57.2,42.7,118.2,36.6,164,6.2c6.3-4.2,12.1-8.1,17.6-11.7L581,368.1L581,368.1z"/>
	<path class="st0" d="M581,244.9c-50.2,33.7-117.9,79.3-130.6,87.8c-20.7,13.8-69.2,48.6-147.1,11.4l9,8.7c1,0.9,2,1.9,3.1,2.8
		l-0.1,0.1l0,0l0.1-0.1c60.5,51.2,127,43.3,172.7,12.8c25.8-17.2,62.4-42,92.9-62.6L581,244.9L581,244.9z"/>
	<path class="st0" d="M581,122.3c-72.3,48.5-191,128-205.4,137.6c-20.8,14-70,49.2-146.9,12.5l9.3,9c5.6,5,13,11.3,21,16.5
		c53.2,34,108.9,28,154.3-2.3c32.6-21.8,112.8-75.1,167.7-111.5L581,122.3L581,122.3z"/>
</g>
</svg>
